<?xml version="1.0" encoding="utf-8"?>
<!-- Generator: Adobe Illustrator 26.0.2, SVG Export Plug-In . SVG Version: 6.00 Build 0)  -->
<svg version="1.1" id="图层_1" xmlns="http://www.w3.org/2000/svg" xmlns:xlink="http://www.w3.org/1999/xlink" x="0px" y="0px"
	 viewBox="0 0 1080 1080" style="enable-background:new 0 0 1080 1080;" xml:space="preserve">
<style type="text/css">
	.st0{opacity:0.5;fill-rule:evenodd;clip-rule:evenodd;fill:#12E895;enable-background:new    ;}
	.st1{opacity:0.5;fill-rule:evenodd;clip-rule:evenodd;fill:#F8C300;enable-background:new    ;}
	.st2{opacity:0.5;fill-rule:evenodd;clip-rule:evenodd;fill:#FB418E;enable-background:new    ;}
	.st3{fill-rule:evenodd;clip-rule:evenodd;fill:#12E895;}
	.st4{fill-rule:evenodd;clip-rule:evenodd;fill:#F8C300;}
	.st5{fill-rule:evenodd;clip-rule:evenodd;fill:#FB418E;}
	.st6{fill:none;}
	.st7{enable-background:new    ;}
</style>
<g id="root">
	<g id="shape" transform="translate(120.000000, 70.000000)">
		
			<rect id="shape.accent" x="488.5" y="-35.6" transform="matrix(0.7071 -0.7071 0.7071 0.7071 -23.9343 462.5869)" class="st0" width="115.8" height="591.5"/>
		
			<rect id="shape.secondary" x="371.3" y="81.6" transform="matrix(0.7071 -0.7071 0.7071 0.7071 -141.1337 414.0224)" class="st1" width="115.8" height="591.5"/>
		
			<rect id="shape.primary" x="252.7" y="200.2" transform="matrix(0.7071 -0.7071 0.7071 0.7071 -259.7332 364.8662)" class="st2" width="115.8" height="591.5"/>
		
			<rect id="shape.accent_00000046316586446879288130000003756654140440038810_" x="472.7" y="-85.2" transform="matrix(0.7071 -0.7071 0.7071 0.7071 6.4923 436.7415)" class="st3" width="115.5" height="591.5"/>
		
			<rect id="shape.secondary_00000150817583865407979350000004311631397151030657_" x="356" y="31.4" transform="matrix(0.7071 -0.7071 0.7071 0.7071 -110.1772 388.3655)" class="st4" width="115.5" height="591.5"/>
		
			<rect id="shape.primary_00000065050542433050862970000000799397245433885828_" x="237.4" y="150" transform="matrix(0.7071 -0.7071 0.7071 0.7071 -228.7769 339.2357)" class="st5" width="115.5" height="591.5"/>
	</g>
	<g id="Group" transform="translate(40.000000, 364.000000)">
		<rect id="Rectangle-10" x="-108.9" y="517.2" class="st6" width="1217.9" height="168.2"/>
		<g class="st7">
			<path d="M122.5,550.6h24.9V624h40.2v20.9h-65.1C122.5,644.9,122.5,550.6,122.5,550.6z"/>
			<path d="M214.8,652.7c3.9,0,6.8-0.7,8.9-2c2.1-1.3,3.6-3.1,4.6-5.3l1.2-3.2L199,572.3h24.6l10.1,27.8c1.3,3.5,2.4,7,3.4,10.7
				c1,3.6,2.1,7.4,3.1,11.4h0.6c0.9-3.7,1.9-7.3,3-11s2.2-7.3,3.3-11l8.7-27.8h23.5L252,643.7c-1.9,4.9-4,9.2-6.1,12.8
				s-4.6,6.5-7.3,8.8c-2.8,2.3-5.9,4-9.4,5.1s-7.7,1.7-12.4,1.7c-2.2,0-4.3-0.1-6.2-0.4c-1.9-0.2-3.7-0.6-5.4-1.1l4.3-18.8
				C211.4,652.4,213.2,652.7,214.8,652.7z"/>
			<path d="M297.6,572.3H318l1.9,15.4h0.6c3.5-6,7.7-10.3,12.6-13s10.1-4.1,15.7-4.1c3.4,0,6,0.3,7.9,0.8s3.8,1.2,5.9,2.1l-4.9,20.9
				c-2.2-0.7-4.2-1.2-6-1.5s-4-0.5-6.6-0.5c-4.2,0-8.3,1.2-12.3,3.7s-7.4,6.7-10.1,12.8v36h-24.9v-72.6H297.6z"/>
			<path d="M380.2,572.3h52.5v72.5h-24.9v-53.1h-27.5v-19.4H380.2z M419.4,563.3c-4.6,0-8.5-1.3-11.5-4s-4.5-6.2-4.5-10.5
				s1.5-7.9,4.5-10.7s6.8-4.1,11.5-4.1c4.6,0,8.5,1.4,11.5,4.1c3,2.8,4.5,6.3,4.5,10.7s-1.5,7.9-4.5,10.5
				C427.8,562,424,563.3,419.4,563.3z"/>
			<path d="M465.5,608.6c0-6,1.2-11.4,3.5-16.1c2.3-4.7,5.4-8.7,9.4-12c3.9-3.2,8.4-5.7,13.6-7.4c5.1-1.7,10.5-2.5,16.1-2.5
				c5.7,0,10.9,0.9,15.7,2.6c4.7,1.7,8.6,4.1,11.7,7l-11.3,15.4c-2.7-1.8-5.2-3.1-7.6-3.8c-2.4-0.7-4.7-1.1-7-1.1
				c-5.5,0-10,1.6-13.3,4.9c-3.4,3.2-5.1,7.6-5.1,13.1s1.6,9.9,4.9,13.1c3.3,3.2,7.5,4.9,12.6,4.9c3.6,0,6.8-0.6,9.8-1.9
				c2.9-1.3,5.7-2.7,8.2-4.2l9.9,15.7c-4.5,3.7-9.5,6.3-14.9,8c-5.4,1.6-10.5,2.5-15.4,2.5c-5.7,0-11-0.8-16-2.5s-9.3-4.2-12.9-7.4
				s-6.5-7.2-8.6-12C466.5,619.9,465.5,614.6,465.5,608.6z"/>
			<path d="M561.2,620.2c4.3,2.5,8.4,4.5,12.5,5.9c4.1,1.5,8.2,2.2,12.5,2.2s7.4-0.4,9.1-1.1c1.7-0.7,2.6-1.8,2.6-3.3
				c0-1-0.5-1.8-1.4-2.5c-1-0.7-2.3-1.4-3.9-2c-1.6-0.6-3.6-1.3-5.7-1.9c-2.2-0.6-4.4-1.3-6.7-2c-3-0.9-6-1.9-9-3.1
				c-3-1.2-5.7-2.7-8.1-4.4c-2.4-1.7-4.4-3.7-5.9-6s-2.3-4.9-2.3-7.9c0-3.6,0.8-6.8,2.5-9.7c1.6-2.9,4-5.4,7-7.4s6.7-3.6,10.9-4.7
				c4.3-1.1,9-1.7,14.4-1.7c6.9,0,13,1.1,18.3,3.3s9.9,4.5,13.8,6.9l-11,14.8c-3.4-1.9-6.8-3.5-10.1-4.8c-3.4-1.3-6.8-1.9-10.3-1.9
				c-3.8,0-6.5,0.3-8.1,0.9c-1.6,0.6-2.5,1.7-2.5,3.1c0,1,0.5,1.8,1.4,2.5s2.2,1.3,3.8,1.9s3.4,1.2,5.5,1.7c2.1,0.6,4.3,1.2,6.6,1.7
				c3.1,0.9,6.2,1.9,9.3,3s5.9,2.5,8.3,4.2c2.5,1.7,4.5,3.7,6,6.1c1.5,2.4,2.3,5.2,2.3,8.5c0,3.4-0.8,6.5-2.4,9.5
				c-1.6,2.9-4,5.5-7.1,7.7s-7,3.9-11.6,5.1c-4.6,1.2-9.9,1.8-16,1.8c-6.3,0-12.6-1.1-18.9-3.2c-6.3-2.1-11.8-4.7-16.5-7.8
				L561.2,620.2z"/>
			<path d="M686.4,624.8h-25.8l-4.6,20h-25.5l28.4-94.2H689l28.4,94.2H691L686.4,624.8z M681.9,605.5l-1.4-6.5
				c-1.1-4.5-2.2-9.5-3.3-14.8c-1.2-5.3-2.3-10.3-3.5-15.1h-0.6c-1.1,4.8-2.2,9.9-3.3,15.2s-2.2,10.2-3.3,14.7l-1.4,6.5L681.9,605.5
				L681.9,605.5z"/>
			<path d="M726.6,550.6h36.5c5,0,9.8,0.5,14.4,1.5c4.6,1,8.6,2.8,12,5.2c3.4,2.5,6.2,5.7,8.2,9.7s3,9,3,14.9c0,5.8-1,10.8-3.1,14.9
				c-2.1,4.2-4.9,7.6-8.3,10.2c-3.5,2.7-7.5,4.6-12,5.9c-4.5,1.3-9.3,2-14.2,2h-11.6v29.9h-24.9L726.6,550.6L726.6,550.6z
				 M762,595.2c4.9,0,8.6-1.2,10.9-3.5c2.4-2.3,3.6-5.6,3.6-9.9c0-4.3-1.3-7.2-3.8-9c-2.5-1.7-6.1-2.6-10.7-2.6h-10.4v24.9
				L762,595.2L762,595.2z"/>
			<path d="M814,623.9h21.5v-52.5H814v-20.9h67.9v20.9h-21.5v52.5h21.5v20.9H814V623.9z"/>
		</g>
	</g>
</g>
</svg>
