<svg id="图层_1" data-name="图层 1" xmlns="http://www.w3.org/2000/svg" viewBox="0 0 290.06 242.65"><defs><style>.cls-1,.cls-4{fill:#12e895;}.cls-1,.cls-2,.cls-3,.cls-8{isolation:isolate;}.cls-1,.cls-2,.cls-3{opacity:0.5;}.cls-2,.cls-5{fill:#f8c300;}.cls-3,.cls-6{fill:#fb418e;}.cls-7{fill:none;}</style></defs><g id="root"><g id="shape"><rect id="shape.accent" class="cls-1" x="143.49" y="7.6" width="27.58" height="140.87" transform="translate(8.74 127.4) rotate(-45)"/><rect id="shape.secondary" class="cls-2" x="115.57" y="35.51" width="27.58" height="140.87" transform="translate(-19.18 115.83) rotate(-45)"/><rect id="shape.primary" class="cls-3" x="87.32" y="63.75" width="27.58" height="140.87" transform="translate(-47.42 104.12) rotate(-45)"/><rect id="shape.accent-2" data-name="shape.accent" class="cls-4" x="139.72" y="-4.23" width="27.51" height="140.87" transform="translate(15.98 121.24) rotate(-45)"/><rect id="shape.secondary-2" data-name="shape.secondary" class="cls-5" x="111.92" y="23.55" width="27.51" height="140.87" transform="translate(-11.8 109.72) rotate(-45)"/><rect id="shape.primary-2" data-name="shape.primary" class="cls-6" x="83.67" y="51.8" width="27.51" height="140.87" transform="translate(-40.05 98.02) rotate(-45)"/></g><g id="Group"><rect id="Rectangle-10" class="cls-7" y="202.59" width="290.06" height="40.06"/><g class="cls-8"><path d="M37.27,217.22H43.2V234.7h9.57v5H37.27Z" transform="translate(17.85 -6.68)"/><path d="M59.25,241.54a4,4,0,0,0,2.12-.48,2.83,2.83,0,0,0,1.09-1.26l.29-.76-7.27-16.65h5.86L63.75,229c.31.83.57,1.67.81,2.55s.5,1.76.74,2.71h.14c.21-.88.45-1.74.71-2.62s.53-1.74.79-2.62L69,222.41h5.6l-6.5,17a21.26,21.26,0,0,1-1.46,3.05,8.13,8.13,0,0,1-1.73,2.1,6.59,6.59,0,0,1-2.24,1.21,10.08,10.08,0,0,1-3,.41,9.7,9.7,0,0,1-1.47-.1A7.56,7.56,0,0,1,57,245.8l1-4.48A4,4,0,0,0,59.25,241.54Z" transform="translate(17.85 -6.68)"/><path d="M79,222.39h4.86l.45,3.67h.14a8.08,8.08,0,0,1,3-3.1,7.68,7.68,0,0,1,3.74-1,7.54,7.54,0,0,1,1.88.19,10.44,10.44,0,0,1,1.41.5l-1.17,5a11.08,11.08,0,0,0-1.43-.36,9.87,9.87,0,0,0-1.57-.11,5.4,5.4,0,0,0-2.93.88,6.51,6.51,0,0,0-2.4,3.05v8.57H79V222.39Z" transform="translate(17.85 -6.68)"/><path d="M98.64,222.39h12.5v17.27h-5.93V227H98.66v-4.62Zm9.34-2.15a3.91,3.91,0,0,1-2.74-1,3.17,3.17,0,0,1-1.07-2.5,3.34,3.34,0,0,1,1.07-2.55,3.85,3.85,0,0,1,2.74-1,4,4,0,0,1,2.74,1,3.33,3.33,0,0,1,1.07,2.55,3.15,3.15,0,0,1-1.07,2.5A4,4,0,0,1,108,220.24Z" transform="translate(17.85 -6.68)"/><path d="M119,231a8.44,8.44,0,0,1,3.07-6.69,9.84,9.84,0,0,1,3.24-1.76,11.9,11.9,0,0,1,3.83-.6,11.2,11.2,0,0,1,3.74.62,8.16,8.16,0,0,1,2.79,1.67l-2.69,3.67a7,7,0,0,0-1.81-.91,6.23,6.23,0,0,0-1.67-.26,4.3,4.3,0,0,0-3.17,1.17,4.08,4.08,0,0,0-1.21,3.12,4,4,0,0,0,4.16,4.28,5.78,5.78,0,0,0,2.34-.45,17.77,17.77,0,0,0,1.95-1l2.36,3.74a10.55,10.55,0,0,1-3.55,1.91,13,13,0,0,1-3.67.59,11.88,11.88,0,0,1-3.81-.59,8.87,8.87,0,0,1-3.07-1.77,8.08,8.08,0,0,1-2.05-2.85A9.08,9.08,0,0,1,119,231Z" transform="translate(17.85 -6.68)"/><path d="M141.75,233.8a16.57,16.57,0,0,0,3,1.4,8.42,8.42,0,0,0,3,.53,6.24,6.24,0,0,0,2.17-.27.84.84,0,0,0,.62-.78.76.76,0,0,0-.33-.6,4.45,4.45,0,0,0-.93-.47c-.38-.15-.86-.31-1.36-.46s-1.05-.31-1.6-.47c-.71-.22-1.43-.46-2.14-.74a9.37,9.37,0,0,1-1.93-1.05,5.14,5.14,0,0,1-1.4-1.43,3.35,3.35,0,0,1-.55-1.88,4.49,4.49,0,0,1,.59-2.31,5.09,5.09,0,0,1,1.67-1.76,8.58,8.58,0,0,1,2.6-1.12,13.72,13.72,0,0,1,3.43-.41,11.33,11.33,0,0,1,4.35.79,22.89,22.89,0,0,1,3.29,1.64l-2.62,3.53a19.31,19.31,0,0,0-2.4-1.15,6.78,6.78,0,0,0-2.46-.45,5.87,5.87,0,0,0-1.93.22.78.78,0,0,0-.59.73.76.76,0,0,0,.33.6,3.5,3.5,0,0,0,.91.45,9.72,9.72,0,0,0,1.31.41c.5.14,1,.28,1.57.4.74.22,1.48.45,2.21.72a7.82,7.82,0,0,1,2,1,4.82,4.82,0,0,1,1.43,1.45,3.7,3.7,0,0,1,.55,2,4.75,4.75,0,0,1-.57,2.27,5.65,5.65,0,0,1-1.7,1.83,8.47,8.47,0,0,1-2.76,1.22,15.41,15.41,0,0,1-3.81.42,14.17,14.17,0,0,1-4.5-.76,16.65,16.65,0,0,1-3.93-1.86Z" transform="translate(17.85 -6.68)"/><path d="M171.57,234.89h-6.15l-1.09,4.77h-6.08L165,217.22h7.17L179,239.66h-6.29Zm-1.07-4.59-.34-1.55c-.26-1.07-.52-2.27-.78-3.53s-.55-2.45-.84-3.59h-.14c-.26,1.14-.52,2.35-.79,3.62s-.52,2.43-.78,3.5l-.34,1.55Z" transform="translate(17.85 -6.68)"/><path d="M181.14,217.22h8.69a16,16,0,0,1,3.43.36,7.65,7.65,0,0,1,2.86,1.24,6.2,6.2,0,0,1,1.95,2.31,7.83,7.83,0,0,1,.72,3.54,7.7,7.7,0,0,1-.74,3.55,6.9,6.9,0,0,1-2,2.43,8.27,8.27,0,0,1-2.85,1.41,12.28,12.28,0,0,1-3.39.47h-2.76v7.13h-5.93V217.22Zm8.43,10.62a3.57,3.57,0,0,0,2.6-.83,3.14,3.14,0,0,0,.86-2.36,2.43,2.43,0,0,0-.91-2.14,4.47,4.47,0,0,0-2.55-.62H187.1v5.93h2.47Z" transform="translate(17.85 -6.68)"/><path d="M202,234.68h5.12V222.17H202v-5h16.17v5H213v12.51h5.12v5H202Z" transform="translate(17.85 -6.68)"/></g></g></g></svg>